<?xml version="1.0" standalone="no"?>
<svg viewBox="0 0 200 200" xmlns="http://www.w3.org/2000/svg">
  <path fill="#F19B55" d="M45.9,-62.6C61.4,-51.9,77.4,-41.1,83.4,-26.2C89.4,-11.4,85.5,7.6,79.4,25.6C73.3,43.7,65,60.8,51.4,69.8C37.7,78.9,18.9,79.9,1.6,77.6C-15.6,75.3,-31.2,69.8,-46.8,61.5C-62.5,53.1,-78.3,41.8,-85.2,26.3C-92.2,10.8,-90.2,-8.9,-84.1,-27.2C-78,-45.4,-67.7,-62.2,-52.9,-73.2C-38.2,-84.2,-19.1,-89.4,-2,-86.7C15.2,-84,30.4,-73.4,45.9,-62.6Z" transform="translate(100 100)" />
</svg>
