<svg width="250" height="80" viewBox="0 0 250 80" fill="none" xmlns="http://www.w3.org/2000/svg">
<rect x="1.5" y="1.5" width="247" height="77" rx="8.5" fill="#F7B888"/>
<path d="M59.5095 40.1C59.5095 39.1387 59.7242 38.28 60.1535 37.524C60.5922 36.7587 61.1849 36.166 61.9315 35.746C62.6875 35.3167 63.5322 35.102 64.4655 35.102C65.5575 35.102 66.5142 35.382 67.3355 35.942C68.1569 36.502 68.7309 37.2767 69.0575 38.266H66.8035C66.5795 37.7993 66.2622 37.4493 65.8515 37.216C65.4502 36.9827 64.9835 36.866 64.4515 36.866C63.8822 36.866 63.3735 37.0013 62.9255 37.272C62.4869 37.5333 62.1415 37.9067 61.8895 38.392C61.6469 38.8773 61.5255 39.4467 61.5255 40.1C61.5255 40.744 61.6469 41.3133 61.8895 41.808C62.1415 42.2933 62.4869 42.6713 62.9255 42.942C63.3735 43.2033 63.8822 43.334 64.4515 43.334C64.9835 43.334 65.4502 43.2173 65.8515 42.984C66.2622 42.7413 66.5795 42.3867 66.8035 41.92H69.0575C68.7309 42.9187 68.1569 43.698 67.3355 44.258C66.5235 44.8087 65.5669 45.084 64.4655 45.084C63.5322 45.084 62.6875 44.874 61.9315 44.454C61.1849 44.0247 60.5922 43.432 60.1535 42.676C59.7242 41.92 59.5095 41.0613 59.5095 40.1ZM74.1756 45.126C73.429 45.126 72.757 44.9627 72.1596 44.636C71.5623 44.3 71.091 43.8287 70.7456 43.222C70.4096 42.6153 70.2416 41.9153 70.2416 41.122C70.2416 40.3287 70.4143 39.6287 70.7596 39.022C71.1143 38.4153 71.595 37.9487 72.2016 37.622C72.8083 37.286 73.485 37.118 74.2316 37.118C74.9783 37.118 75.655 37.286 76.2616 37.622C76.8683 37.9487 77.3443 38.4153 77.6896 39.022C78.0443 39.6287 78.2216 40.3287 78.2216 41.122C78.2216 41.9153 78.0396 42.6153 77.6756 43.222C77.321 43.8287 76.8356 44.3 76.2196 44.636C75.613 44.9627 74.9316 45.126 74.1756 45.126ZM74.1756 43.418C74.5303 43.418 74.8616 43.334 75.1696 43.166C75.487 42.9887 75.739 42.7273 75.9256 42.382C76.1123 42.0367 76.2056 41.6167 76.2056 41.122C76.2056 40.3847 76.0096 39.82 75.6176 39.428C75.235 39.0267 74.7636 38.826 74.2036 38.826C73.6436 38.826 73.1723 39.0267 72.7896 39.428C72.4163 39.82 72.2296 40.3847 72.2296 41.122C72.2296 41.8593 72.4116 42.4287 72.7756 42.83C73.149 43.222 73.6156 43.418 74.1756 43.418ZM89.2914 37.132C90.2434 37.132 91.0087 37.426 91.5874 38.014C92.1754 38.5927 92.4694 39.4047 92.4694 40.45V45H90.5094V40.716C90.5094 40.1093 90.3554 39.6473 90.0474 39.33C89.7394 39.0033 89.3194 38.84 88.7874 38.84C88.2554 38.84 87.8307 39.0033 87.5134 39.33C87.2054 39.6473 87.0514 40.1093 87.0514 40.716V45H85.0914V40.716C85.0914 40.1093 84.9374 39.6473 84.6294 39.33C84.3214 39.0033 83.9014 38.84 83.3694 38.84C82.828 38.84 82.3987 39.0033 82.0814 39.33C81.7734 39.6473 81.6194 40.1093 81.6194 40.716V45H79.6594V37.244H81.6194V38.182C81.8714 37.8553 82.1934 37.5987 82.5854 37.412C82.9867 37.2253 83.4254 37.132 83.9014 37.132C84.508 37.132 85.0494 37.2627 85.5254 37.524C86.0014 37.776 86.37 38.14 86.6314 38.616C86.8834 38.168 87.2474 37.8087 87.7234 37.538C88.2087 37.2673 88.7314 37.132 89.2914 37.132ZM96.2893 38.364C96.5413 38.0093 96.8866 37.7153 97.3253 37.482C97.7733 37.2393 98.2819 37.118 98.8513 37.118C99.5139 37.118 100.111 37.2813 100.643 37.608C101.185 37.9347 101.609 38.4013 101.917 39.008C102.235 39.6053 102.393 40.3007 102.393 41.094C102.393 41.8873 102.235 42.592 101.917 43.208C101.609 43.8147 101.185 44.286 100.643 44.622C100.111 44.958 99.5139 45.126 98.8513 45.126C98.2819 45.126 97.7779 45.0093 97.3393 44.776C96.9099 44.5427 96.5599 44.2487 96.2893 43.894V48.696H94.3293V37.244H96.2893V38.364ZM100.391 41.094C100.391 40.6273 100.293 40.226 100.097 39.89C99.9106 39.5447 99.6586 39.2833 99.3413 39.106C99.0333 38.9287 98.6973 38.84 98.3333 38.84C97.9786 38.84 97.6426 38.9333 97.3253 39.12C97.0173 39.2973 96.7653 39.5587 96.5693 39.904C96.3826 40.2493 96.2893 40.6553 96.2893 41.122C96.2893 41.5887 96.3826 41.9947 96.5693 42.34C96.7653 42.6853 97.0173 42.9513 97.3253 43.138C97.6426 43.3153 97.9786 43.404 98.3333 43.404C98.6973 43.404 99.0333 43.3107 99.3413 43.124C99.6586 42.9373 99.9106 42.6713 100.097 42.326C100.293 41.9807 100.391 41.57 100.391 41.094ZM111.14 37.244V45H109.166V44.02C108.914 44.356 108.582 44.622 108.172 44.818C107.77 45.0047 107.332 45.098 106.856 45.098C106.249 45.098 105.712 44.972 105.246 44.72C104.779 44.4587 104.41 44.0807 104.14 43.586C103.878 43.082 103.748 42.4847 103.748 41.794V37.244H105.708V41.514C105.708 42.13 105.862 42.606 106.17 42.942C106.478 43.2687 106.898 43.432 107.43 43.432C107.971 43.432 108.396 43.2687 108.704 42.942C109.012 42.606 109.166 42.13 109.166 41.514V37.244H111.14ZM115.355 38.854V42.606C115.355 42.8673 115.416 43.0587 115.537 43.18C115.668 43.292 115.883 43.348 116.181 43.348H117.091V45H115.859C114.207 45 113.381 44.1973 113.381 42.592V38.854H112.457V37.244H113.381V35.326H115.355V37.244H117.091V38.854H115.355ZM125.711 40.954C125.711 41.234 125.692 41.486 125.655 41.71H119.985C120.032 42.27 120.228 42.7087 120.573 43.026C120.918 43.3433 121.343 43.502 121.847 43.502C122.575 43.502 123.093 43.1893 123.401 42.564H125.515C125.291 43.3107 124.862 43.9267 124.227 44.412C123.592 44.888 122.813 45.126 121.889 45.126C121.142 45.126 120.47 44.9627 119.873 44.636C119.285 44.3 118.823 43.8287 118.487 43.222C118.16 42.6153 117.997 41.9153 117.997 41.122C117.997 40.3193 118.16 39.6147 118.487 39.008C118.814 38.4013 119.271 37.9347 119.859 37.608C120.447 37.2813 121.124 37.118 121.889 37.118C122.626 37.118 123.284 37.2767 123.863 37.594C124.451 37.9113 124.904 38.364 125.221 38.952C125.548 39.5307 125.711 40.198 125.711 40.954ZM123.681 40.394C123.672 39.89 123.49 39.4887 123.135 39.19C122.78 38.882 122.346 38.728 121.833 38.728C121.348 38.728 120.937 38.8773 120.601 39.176C120.274 39.4653 120.074 39.8713 119.999 40.394H123.681ZM129.102 38.448C129.354 38.0373 129.68 37.7153 130.082 37.482C130.492 37.2487 130.959 37.132 131.482 37.132V39.19H130.964C130.348 39.19 129.881 39.3347 129.564 39.624C129.256 39.9133 129.102 40.4173 129.102 41.136V45H127.142V37.244H129.102V38.448ZM139.512 45.098C138.831 45.098 138.215 44.9813 137.664 44.748C137.123 44.5147 136.693 44.1787 136.376 43.74C136.059 43.3013 135.895 42.7833 135.886 42.186H137.986C138.014 42.5873 138.154 42.9047 138.406 43.138C138.667 43.3713 139.022 43.488 139.47 43.488C139.927 43.488 140.287 43.3807 140.548 43.166C140.809 42.942 140.94 42.6527 140.94 42.298C140.94 42.0087 140.851 41.7707 140.674 41.584C140.497 41.3973 140.273 41.2527 140.002 41.15C139.741 41.038 139.377 40.9167 138.91 40.786C138.275 40.5993 137.757 40.4173 137.356 40.24C136.964 40.0533 136.623 39.778 136.334 39.414C136.054 39.0407 135.914 38.546 135.914 37.93C135.914 37.3513 136.059 36.8473 136.348 36.418C136.637 35.9887 137.043 35.662 137.566 35.438C138.089 35.2047 138.686 35.088 139.358 35.088C140.366 35.088 141.183 35.3353 141.808 35.83C142.443 36.3153 142.793 36.9967 142.858 37.874H140.702C140.683 37.538 140.539 37.2627 140.268 37.048C140.007 36.824 139.657 36.712 139.218 36.712C138.835 36.712 138.527 36.81 138.294 37.006C138.07 37.202 137.958 37.4867 137.958 37.86C137.958 38.1213 138.042 38.3407 138.21 38.518C138.387 38.686 138.602 38.826 138.854 38.938C139.115 39.0407 139.479 39.162 139.946 39.302C140.581 39.4887 141.099 39.6753 141.5 39.862C141.901 40.0487 142.247 40.3287 142.536 40.702C142.825 41.0753 142.97 41.5653 142.97 42.172C142.97 42.6947 142.835 43.18 142.564 43.628C142.293 44.076 141.897 44.4353 141.374 44.706C140.851 44.9673 140.231 45.098 139.512 45.098ZM144.165 41.122C144.165 40.3193 144.328 39.6193 144.655 39.022C144.982 38.4153 145.434 37.9487 146.013 37.622C146.592 37.286 147.254 37.118 148.001 37.118C148.962 37.118 149.756 37.3607 150.381 37.846C151.016 38.322 151.44 38.994 151.655 39.862H149.541C149.429 39.526 149.238 39.2647 148.967 39.078C148.706 38.882 148.379 38.784 147.987 38.784C147.427 38.784 146.984 38.9893 146.657 39.4C146.33 39.8013 146.167 40.3753 146.167 41.122C146.167 41.8593 146.33 42.4333 146.657 42.844C146.984 43.2453 147.427 43.446 147.987 43.446C148.78 43.446 149.298 43.0913 149.541 42.382H151.655C151.44 43.222 151.016 43.8893 150.381 44.384C149.746 44.8787 148.953 45.126 148.001 45.126C147.254 45.126 146.592 44.9627 146.013 44.636C145.434 44.3 144.982 43.8333 144.655 43.236C144.328 42.6293 144.165 41.9247 144.165 41.122ZM154.085 36.32C153.74 36.32 153.45 36.2127 153.217 35.998C152.993 35.774 152.881 35.4987 152.881 35.172C152.881 34.8453 152.993 34.5747 153.217 34.36C153.45 34.136 153.74 34.024 154.085 34.024C154.43 34.024 154.715 34.136 154.939 34.36C155.172 34.5747 155.289 34.8453 155.289 35.172C155.289 35.4987 155.172 35.774 154.939 35.998C154.715 36.2127 154.43 36.32 154.085 36.32ZM155.051 37.244V45H153.091V37.244H155.051ZM164.197 40.954C164.197 41.234 164.179 41.486 164.141 41.71H158.471C158.518 42.27 158.714 42.7087 159.059 43.026C159.405 43.3433 159.829 43.502 160.333 43.502C161.061 43.502 161.579 43.1893 161.887 42.564H164.001C163.777 43.3107 163.348 43.9267 162.713 44.412C162.079 44.888 161.299 45.126 160.375 45.126C159.629 45.126 158.957 44.9627 158.359 44.636C157.771 44.3 157.309 43.8287 156.973 43.222C156.647 42.6153 156.483 41.9153 156.483 41.122C156.483 40.3193 156.647 39.6147 156.973 39.008C157.3 38.4013 157.757 37.9347 158.345 37.608C158.933 37.2813 159.61 37.118 160.375 37.118C161.113 37.118 161.771 37.2767 162.349 37.594C162.937 37.9113 163.39 38.364 163.707 38.952C164.034 39.5307 164.197 40.198 164.197 40.954ZM162.167 40.394C162.158 39.89 161.976 39.4887 161.621 39.19C161.267 38.882 160.833 38.728 160.319 38.728C159.834 38.728 159.423 38.8773 159.087 39.176C158.761 39.4653 158.56 39.8713 158.485 40.394H162.167ZM169.926 37.132C170.85 37.132 171.597 37.426 172.166 38.014C172.735 38.5927 173.02 39.4047 173.02 40.45V45H171.06V40.716C171.06 40.1 170.906 39.6287 170.598 39.302C170.29 38.966 169.87 38.798 169.338 38.798C168.797 38.798 168.367 38.966 168.05 39.302C167.742 39.6287 167.588 40.1 167.588 40.716V45H165.628V37.244H167.588V38.21C167.849 37.874 168.181 37.6127 168.582 37.426C168.993 37.23 169.441 37.132 169.926 37.132ZM174.38 41.122C174.38 40.3193 174.543 39.6193 174.87 39.022C175.197 38.4153 175.649 37.9487 176.228 37.622C176.807 37.286 177.469 37.118 178.216 37.118C179.177 37.118 179.971 37.3607 180.596 37.846C181.231 38.322 181.655 38.994 181.87 39.862H179.756C179.644 39.526 179.453 39.2647 179.182 39.078C178.921 38.882 178.594 38.784 178.202 38.784C177.642 38.784 177.199 38.9893 176.872 39.4C176.545 39.8013 176.382 40.3753 176.382 41.122C176.382 41.8593 176.545 42.4333 176.872 42.844C177.199 43.2453 177.642 43.446 178.202 43.446C178.995 43.446 179.513 43.0913 179.756 42.382H181.87C181.655 43.222 181.231 43.8893 180.596 44.384C179.961 44.8787 179.168 45.126 178.216 45.126C177.469 45.126 176.807 44.9627 176.228 44.636C175.649 44.3 175.197 43.8333 174.87 43.236C174.543 42.6293 174.38 41.9247 174.38 41.122ZM190.516 40.954C190.516 41.234 190.497 41.486 190.46 41.71H184.79C184.837 42.27 185.033 42.7087 185.378 43.026C185.723 43.3433 186.148 43.502 186.652 43.502C187.38 43.502 187.898 43.1893 188.206 42.564H190.32C190.096 43.3107 189.667 43.9267 189.032 44.412C188.397 44.888 187.618 45.126 186.694 45.126C185.947 45.126 185.275 44.9627 184.678 44.636C184.09 44.3 183.628 43.8287 183.292 43.222C182.965 42.6153 182.802 41.9153 182.802 41.122C182.802 40.3193 182.965 39.6147 183.292 39.008C183.619 38.4013 184.076 37.9347 184.664 37.608C185.252 37.2813 185.929 37.118 186.694 37.118C187.431 37.118 188.089 37.2767 188.668 37.594C189.256 37.9113 189.709 38.364 190.026 38.952C190.353 39.5307 190.516 40.198 190.516 40.954ZM188.486 40.394C188.477 39.89 188.295 39.4887 187.94 39.19C187.585 38.882 187.151 38.728 186.638 38.728C186.153 38.728 185.742 38.8773 185.406 39.176C185.079 39.4653 184.879 39.8713 184.804 40.394H188.486Z" fill="white"/>
<rect x="1.5" y="1.5" width="247" height="77" rx="8.5" stroke="#45526C" stroke-width="3"/>
</svg>
