<svg width="250" height="80" viewBox="0 0 250 80" fill="none" xmlns="http://www.w3.org/2000/svg">
<rect x="1.5" y="1.5" width="247" height="77" rx="8.5" fill="#F7B888"/>
<path d="M71.6594 25.81V28.26H74.9494V29.814H71.6594V32.404H75.3694V34H69.6994V24.214H75.3694V25.81H71.6594ZM79.1106 23.64V34H77.1506V23.64H79.1106ZM88.2571 29.954C88.2571 30.234 88.2384 30.486 88.2011 30.71H82.5311C82.5777 31.27 82.7737 31.7087 83.1191 32.026C83.4644 32.3433 83.8891 32.502 84.3931 32.502C85.1211 32.502 85.6391 32.1893 85.9471 31.564H88.0611C87.8371 32.3107 87.4077 32.9267 86.7731 33.412C86.1384 33.888 85.3591 34.126 84.4351 34.126C83.6884 34.126 83.0164 33.9627 82.4191 33.636C81.8311 33.3 81.3691 32.8287 81.0331 32.222C80.7064 31.6153 80.5431 30.9153 80.5431 30.122C80.5431 29.3193 80.7064 28.6147 81.0331 28.008C81.3597 27.4013 81.8171 26.9347 82.4051 26.608C82.9931 26.2813 83.6697 26.118 84.4351 26.118C85.1724 26.118 85.8304 26.2767 86.4091 26.594C86.9971 26.9113 87.4497 27.364 87.7671 27.952C88.0937 28.5307 88.2571 29.198 88.2571 29.954ZM86.2271 29.394C86.2177 28.89 86.0357 28.4887 85.6811 28.19C85.3264 27.882 84.8924 27.728 84.3791 27.728C83.8937 27.728 83.4831 27.8773 83.1471 28.176C82.8204 28.4653 82.6197 28.8713 82.5451 29.394H86.2271ZM89.1837 30.122C89.1837 29.3193 89.347 28.6193 89.6737 28.022C90.0003 27.4153 90.453 26.9487 91.0317 26.622C91.6103 26.286 92.273 26.118 93.0197 26.118C93.981 26.118 94.7743 26.3607 95.3997 26.846C96.0343 27.322 96.459 27.994 96.6737 28.862H94.5597C94.4477 28.526 94.2563 28.2647 93.9857 28.078C93.7243 27.882 93.3977 27.784 93.0057 27.784C92.4457 27.784 92.0023 27.9893 91.6757 28.4C91.349 28.8013 91.1857 29.3753 91.1857 30.122C91.1857 30.8593 91.349 31.4333 91.6757 31.844C92.0023 32.2453 92.4457 32.446 93.0057 32.446C93.799 32.446 94.317 32.0913 94.5597 31.382H96.6737C96.459 32.222 96.0343 32.8893 95.3997 33.384C94.765 33.8787 93.9717 34.126 93.0197 34.126C92.273 34.126 91.6103 33.9627 91.0317 33.636C90.453 33.3 90.0003 32.8333 89.6737 32.236C89.347 31.6293 89.1837 30.9247 89.1837 30.122ZM100.392 27.854V31.606C100.392 31.8673 100.452 32.0587 100.574 32.18C100.704 32.292 100.919 32.348 101.218 32.348H102.128V34H100.896C99.2436 34 98.4176 33.1973 98.4176 31.592V27.854H97.4936V26.244H98.4176V24.326H100.392V26.244H102.128V27.854H100.392ZM105.497 27.448C105.749 27.0373 106.076 26.7153 106.477 26.482C106.888 26.2487 107.355 26.132 107.877 26.132V28.19H107.359C106.743 28.19 106.277 28.3347 105.959 28.624C105.651 28.9133 105.497 29.4173 105.497 30.136V34H103.537V26.244H105.497V27.448ZM112.641 34.126C111.895 34.126 111.223 33.9627 110.625 33.636C110.028 33.3 109.557 32.8287 109.211 32.222C108.875 31.6153 108.707 30.9153 108.707 30.122C108.707 29.3287 108.88 28.6287 109.225 28.022C109.58 27.4153 110.061 26.9487 110.667 26.622C111.274 26.286 111.951 26.118 112.697 26.118C113.444 26.118 114.121 26.286 114.727 26.622C115.334 26.9487 115.81 27.4153 116.155 28.022C116.51 28.6287 116.687 29.3287 116.687 30.122C116.687 30.9153 116.505 31.6153 116.141 32.222C115.787 32.8287 115.301 33.3 114.685 33.636C114.079 33.9627 113.397 34.126 112.641 34.126ZM112.641 32.418C112.996 32.418 113.327 32.334 113.635 32.166C113.953 31.9887 114.205 31.7273 114.391 31.382C114.578 31.0367 114.671 30.6167 114.671 30.122C114.671 29.3847 114.475 28.82 114.083 28.428C113.701 28.0267 113.229 27.826 112.669 27.826C112.109 27.826 111.638 28.0267 111.255 28.428C110.882 28.82 110.695 29.3847 110.695 30.122C110.695 30.8593 110.877 31.4287 111.241 31.83C111.615 32.222 112.081 32.418 112.641 32.418ZM122.423 26.132C123.347 26.132 124.094 26.426 124.663 27.014C125.233 27.5927 125.517 28.4047 125.517 29.45V34H123.557V29.716C123.557 29.1 123.403 28.6287 123.095 28.302C122.787 27.966 122.367 27.798 121.835 27.798C121.294 27.798 120.865 27.966 120.547 28.302C120.239 28.6287 120.085 29.1 120.085 29.716V34H118.125V26.244H120.085V27.21C120.347 26.874 120.678 26.6127 121.079 26.426C121.49 26.23 121.938 26.132 122.423 26.132ZM128.375 25.32C128.03 25.32 127.74 25.2127 127.507 24.998C127.283 24.774 127.171 24.4987 127.171 24.172C127.171 23.8453 127.283 23.5747 127.507 23.36C127.74 23.136 128.03 23.024 128.375 23.024C128.72 23.024 129.005 23.136 129.229 23.36C129.462 23.5747 129.579 23.8453 129.579 24.172C129.579 24.4987 129.462 24.774 129.229 24.998C129.005 25.2127 128.72 25.32 128.375 25.32ZM129.341 26.244V34H127.381V26.244H129.341ZM130.774 30.122C130.774 29.3193 130.937 28.6193 131.264 28.022C131.59 27.4153 132.043 26.9487 132.622 26.622C133.2 26.286 133.863 26.118 134.61 26.118C135.571 26.118 136.364 26.3607 136.99 26.846C137.624 27.322 138.049 27.994 138.264 28.862H136.15C136.038 28.526 135.846 28.2647 135.576 28.078C135.314 27.882 134.988 27.784 134.596 27.784C134.036 27.784 133.592 27.9893 133.266 28.4C132.939 28.8013 132.776 29.3753 132.776 30.122C132.776 30.8593 132.939 31.4333 133.266 31.844C133.592 32.2453 134.036 32.446 134.596 32.446C135.389 32.446 135.907 32.0913 136.15 31.382H138.264C138.049 32.222 137.624 32.8893 136.99 33.384C136.355 33.8787 135.562 34.126 134.61 34.126C133.863 34.126 133.2 33.9627 132.622 33.636C132.043 33.3 131.59 32.8333 131.264 32.236C130.937 31.6293 130.774 30.9247 130.774 30.122ZM142.667 34.126C142.033 34.126 141.463 34.014 140.959 33.79C140.455 33.5567 140.054 33.244 139.755 32.852C139.466 32.46 139.307 32.026 139.279 31.55H141.253C141.291 31.8487 141.435 32.096 141.687 32.292C141.949 32.488 142.271 32.586 142.653 32.586C143.027 32.586 143.316 32.5113 143.521 32.362C143.736 32.2127 143.843 32.0213 143.843 31.788C143.843 31.536 143.713 31.3493 143.451 31.228C143.199 31.0973 142.793 30.9573 142.233 30.808C141.655 30.668 141.179 30.5233 140.805 30.374C140.441 30.2247 140.124 29.996 139.853 29.688C139.592 29.38 139.461 28.9647 139.461 28.442C139.461 28.0127 139.583 27.6207 139.825 27.266C140.077 26.9113 140.432 26.6313 140.889 26.426C141.356 26.2207 141.902 26.118 142.527 26.118C143.451 26.118 144.189 26.3513 144.739 26.818C145.29 27.2753 145.593 27.896 145.649 28.68H143.773C143.745 28.372 143.615 28.1293 143.381 27.952C143.157 27.7653 142.854 27.672 142.471 27.672C142.117 27.672 141.841 27.7373 141.645 27.868C141.459 27.9987 141.365 28.1807 141.365 28.414C141.365 28.6753 141.496 28.876 141.757 29.016C142.019 29.1467 142.425 29.282 142.975 29.422C143.535 29.562 143.997 29.7067 144.361 29.856C144.725 30.0053 145.038 30.2387 145.299 30.556C145.57 30.864 145.71 31.2747 145.719 31.788C145.719 32.236 145.593 32.6373 145.341 32.992C145.099 33.3467 144.744 33.6267 144.277 33.832C143.82 34.028 143.283 34.126 142.667 34.126ZM150.16 30.094C150.16 29.31 150.314 28.6147 150.622 28.008C150.94 27.4013 151.364 26.9347 151.896 26.608C152.438 26.2813 153.04 26.118 153.702 26.118C154.281 26.118 154.785 26.2347 155.214 26.468C155.653 26.7013 156.003 26.9953 156.264 27.35V26.244H158.238V34H156.264V32.866C156.012 33.23 155.662 33.5333 155.214 33.776C154.776 34.0093 154.267 34.126 153.688 34.126C153.035 34.126 152.438 33.958 151.896 33.622C151.364 33.286 150.94 32.8147 150.622 32.208C150.314 31.592 150.16 30.8873 150.16 30.094ZM156.264 30.122C156.264 29.646 156.171 29.24 155.984 28.904C155.798 28.5587 155.546 28.2973 155.228 28.12C154.911 27.9333 154.57 27.84 154.206 27.84C153.842 27.84 153.506 27.9287 153.198 28.106C152.89 28.2833 152.638 28.5447 152.442 28.89C152.256 29.226 152.162 29.6273 152.162 30.094C152.162 30.5607 152.256 30.9713 152.442 31.326C152.638 31.6713 152.89 31.9373 153.198 32.124C153.516 32.3107 153.852 32.404 154.206 32.404C154.57 32.404 154.911 32.3153 155.228 32.138C155.546 31.9513 155.798 31.69 155.984 31.354C156.171 31.0087 156.264 30.598 156.264 30.122ZM164.451 26.132C165.375 26.132 166.121 26.426 166.691 27.014C167.26 27.5927 167.545 28.4047 167.545 29.45V34H165.585V29.716C165.585 29.1 165.431 28.6287 165.123 28.302C164.815 27.966 164.395 27.798 163.863 27.798C163.321 27.798 162.892 27.966 162.575 28.302C162.267 28.6287 162.113 29.1 162.113 29.716V34H160.153V26.244H162.113V27.21C162.374 26.874 162.705 26.6127 163.107 26.426C163.517 26.23 163.965 26.132 164.451 26.132ZM168.904 30.094C168.904 29.31 169.058 28.6147 169.366 28.008C169.684 27.4013 170.113 26.9347 170.654 26.608C171.196 26.2813 171.798 26.118 172.46 26.118C172.964 26.118 173.445 26.23 173.902 26.454C174.36 26.6687 174.724 26.958 174.994 27.322V23.64H176.982V34H174.994V32.852C174.752 33.2347 174.411 33.5427 173.972 33.776C173.534 34.0093 173.025 34.126 172.446 34.126C171.793 34.126 171.196 33.958 170.654 33.622C170.113 33.286 169.684 32.8147 169.366 32.208C169.058 31.592 168.904 30.8873 168.904 30.094ZM175.008 30.122C175.008 29.646 174.915 29.24 174.728 28.904C174.542 28.5587 174.29 28.2973 173.972 28.12C173.655 27.9333 173.314 27.84 172.95 27.84C172.586 27.84 172.25 27.9287 171.942 28.106C171.634 28.2833 171.382 28.5447 171.186 28.89C171 29.226 170.906 29.6273 170.906 30.094C170.906 30.5607 171 30.9713 171.186 31.326C171.382 31.6713 171.634 31.9373 171.942 32.124C172.26 32.3107 172.596 32.404 172.95 32.404C173.314 32.404 173.655 32.3153 173.972 32.138C174.29 31.9513 174.542 31.69 174.728 31.354C174.915 31.0087 175.008 30.598 175.008 30.122ZM60.7293 45.228V46.81H58.1253V55H56.1653V46.81H53.5613V45.228H60.7293ZM69.3694 50.954C69.3694 51.234 69.3507 51.486 69.3134 51.71H63.6434C63.69 52.27 63.886 52.7087 64.2314 53.026C64.5767 53.3433 65.0014 53.502 65.5054 53.502C66.2334 53.502 66.7514 53.1893 67.0594 52.564H69.1734C68.9494 53.3107 68.52 53.9267 67.8854 54.412C67.2507 54.888 66.4714 55.126 65.5474 55.126C64.8007 55.126 64.1287 54.9627 63.5314 54.636C62.9434 54.3 62.4814 53.8287 62.1454 53.222C61.8187 52.6153 61.6554 51.9153 61.6554 51.122C61.6554 50.3193 61.8187 49.6147 62.1454 49.008C62.472 48.4013 62.9294 47.9347 63.5174 47.608C64.1054 47.2813 64.782 47.118 65.5474 47.118C66.2847 47.118 66.9427 47.2767 67.5214 47.594C68.1094 47.9113 68.562 48.364 68.8794 48.952C69.206 49.5307 69.3694 50.198 69.3694 50.954ZM67.3394 50.394C67.33 49.89 67.148 49.4887 66.7934 49.19C66.4387 48.882 66.0047 48.728 65.4914 48.728C65.006 48.728 64.5954 48.8773 64.2594 49.176C63.9327 49.4653 63.732 49.8713 63.6574 50.394H67.3394ZM72.76 44.64V55H70.8V44.64H72.76ZM81.9065 50.954C81.9065 51.234 81.8878 51.486 81.8505 51.71H76.1805C76.2271 52.27 76.4231 52.7087 76.7685 53.026C77.1138 53.3433 77.5385 53.502 78.0425 53.502C78.7705 53.502 79.2885 53.1893 79.5965 52.564H81.7105C81.4865 53.3107 81.0571 53.9267 80.4225 54.412C79.7878 54.888 79.0085 55.126 78.0845 55.126C77.3378 55.126 76.6658 54.9627 76.0685 54.636C75.4805 54.3 75.0185 53.8287 74.6825 53.222C74.3558 52.6153 74.1925 51.9153 74.1925 51.122C74.1925 50.3193 74.3558 49.6147 74.6825 49.008C75.0091 48.4013 75.4665 47.9347 76.0545 47.608C76.6425 47.2813 77.3191 47.118 78.0845 47.118C78.8218 47.118 79.4798 47.2767 80.0585 47.594C80.6465 47.9113 81.0991 48.364 81.4165 48.952C81.7431 49.5307 81.9065 50.198 81.9065 50.954ZM79.8765 50.394C79.8671 49.89 79.6851 49.4887 79.3305 49.19C78.9758 48.882 78.5418 48.728 78.0285 48.728C77.5431 48.728 77.1325 48.8773 76.7965 49.176C76.4698 49.4653 76.2691 49.8713 76.1945 50.394H79.8765ZM82.8331 51.122C82.8331 50.3193 82.9964 49.6193 83.3231 49.022C83.6498 48.4153 84.1024 47.9487 84.6811 47.622C85.2598 47.286 85.9224 47.118 86.6691 47.118C87.6304 47.118 88.4238 47.3607 89.0491 47.846C89.6838 48.322 90.1084 48.994 90.3231 49.862H88.2091C88.0971 49.526 87.9058 49.2647 87.6351 49.078C87.3738 48.882 87.0471 48.784 86.6551 48.784C86.0951 48.784 85.6518 48.9893 85.3251 49.4C84.9984 49.8013 84.8351 50.3753 84.8351 51.122C84.8351 51.8593 84.9984 52.4333 85.3251 52.844C85.6518 53.2453 86.0951 53.446 86.6551 53.446C87.4484 53.446 87.9664 53.0913 88.2091 52.382H90.3231C90.1084 53.222 89.6838 53.8893 89.0491 54.384C88.4144 54.8787 87.6211 55.126 86.6691 55.126C85.9224 55.126 85.2598 54.9627 84.6811 54.636C84.1024 54.3 83.6498 53.8333 83.3231 53.236C82.9964 52.6293 82.8331 51.9247 82.8331 51.122ZM95.203 55.126C94.4563 55.126 93.7843 54.9627 93.187 54.636C92.5896 54.3 92.1183 53.8287 91.773 53.222C91.437 52.6153 91.269 51.9153 91.269 51.122C91.269 50.3287 91.4416 49.6287 91.787 49.022C92.1416 48.4153 92.6223 47.9487 93.229 47.622C93.8356 47.286 94.5123 47.118 95.259 47.118C96.0056 47.118 96.6823 47.286 97.289 47.622C97.8956 47.9487 98.3716 48.4153 98.717 49.022C99.0716 49.6287 99.249 50.3287 99.249 51.122C99.249 51.9153 99.067 52.6153 98.703 53.222C98.3483 53.8287 97.863 54.3 97.247 54.636C96.6403 54.9627 95.959 55.126 95.203 55.126ZM95.203 53.418C95.5576 53.418 95.889 53.334 96.197 53.166C96.5143 52.9887 96.7663 52.7273 96.953 52.382C97.1396 52.0367 97.233 51.6167 97.233 51.122C97.233 50.3847 97.037 49.82 96.645 49.428C96.2623 49.0267 95.791 48.826 95.231 48.826C94.671 48.826 94.1996 49.0267 93.817 49.428C93.4436 49.82 93.257 50.3847 93.257 51.122C93.257 51.8593 93.439 52.4287 93.803 52.83C94.1763 53.222 94.643 53.418 95.203 53.418ZM110.319 47.132C111.271 47.132 112.036 47.426 112.615 48.014C113.203 48.5927 113.497 49.4047 113.497 50.45V55H111.537V50.716C111.537 50.1093 111.383 49.6473 111.075 49.33C110.767 49.0033 110.347 48.84 109.815 48.84C109.283 48.84 108.858 49.0033 108.541 49.33C108.233 49.6473 108.079 50.1093 108.079 50.716V55H106.119V50.716C106.119 50.1093 105.965 49.6473 105.657 49.33C105.349 49.0033 104.929 48.84 104.397 48.84C103.855 48.84 103.426 49.0033 103.109 49.33C102.801 49.6473 102.647 50.1093 102.647 50.716V55H100.687V47.244H102.647V48.182C102.899 47.8553 103.221 47.5987 103.613 47.412C104.014 47.2253 104.453 47.132 104.929 47.132C105.535 47.132 106.077 47.2627 106.553 47.524C107.029 47.776 107.397 48.14 107.659 48.616C107.911 48.168 108.275 47.8087 108.751 47.538C109.236 47.2673 109.759 47.132 110.319 47.132ZM124.989 47.132C125.941 47.132 126.706 47.426 127.285 48.014C127.873 48.5927 128.167 49.4047 128.167 50.45V55H126.207V50.716C126.207 50.1093 126.053 49.6473 125.745 49.33C125.437 49.0033 125.017 48.84 124.485 48.84C123.953 48.84 123.528 49.0033 123.211 49.33C122.903 49.6473 122.749 50.1093 122.749 50.716V55H120.789V50.716C120.789 50.1093 120.635 49.6473 120.327 49.33C120.019 49.0033 119.599 48.84 119.067 48.84C118.525 48.84 118.096 49.0033 117.779 49.33C117.471 49.6473 117.317 50.1093 117.317 50.716V55H115.357V47.244H117.317V48.182C117.569 47.8553 117.891 47.5987 118.283 47.412C118.684 47.2253 119.123 47.132 119.599 47.132C120.205 47.132 120.747 47.2627 121.223 47.524C121.699 47.776 122.067 48.14 122.329 48.616C122.581 48.168 122.945 47.8087 123.421 47.538C123.906 47.2673 124.429 47.132 124.989 47.132ZM137.349 47.244V55H135.375V54.02C135.123 54.356 134.791 54.622 134.381 54.818C133.979 55.0047 133.541 55.098 133.065 55.098C132.458 55.098 131.921 54.972 131.455 54.72C130.988 54.4587 130.619 54.0807 130.349 53.586C130.087 53.082 129.957 52.4847 129.957 51.794V47.244H131.917V51.514C131.917 52.13 132.071 52.606 132.379 52.942C132.687 53.2687 133.107 53.432 133.639 53.432C134.18 53.432 134.605 53.2687 134.913 52.942C135.221 52.606 135.375 52.13 135.375 51.514V47.244H137.349ZM143.58 47.132C144.504 47.132 145.251 47.426 145.82 48.014C146.39 48.5927 146.674 49.4047 146.674 50.45V55H144.714V50.716C144.714 50.1 144.56 49.6287 144.252 49.302C143.944 48.966 143.524 48.798 142.992 48.798C142.451 48.798 142.022 48.966 141.704 49.302C141.396 49.6287 141.242 50.1 141.242 50.716V55H139.282V47.244H141.242V48.21C141.504 47.874 141.835 47.6127 142.236 47.426C142.647 47.23 143.095 47.132 143.58 47.132ZM149.532 46.32C149.187 46.32 148.898 46.2127 148.664 45.998C148.44 45.774 148.328 45.4987 148.328 45.172C148.328 44.8453 148.44 44.5747 148.664 44.36C148.898 44.136 149.187 44.024 149.532 44.024C149.878 44.024 150.162 44.136 150.386 44.36C150.62 44.5747 150.736 44.8453 150.736 45.172C150.736 45.4987 150.62 45.774 150.386 45.998C150.162 46.2127 149.878 46.32 149.532 46.32ZM150.498 47.244V55H148.538V47.244H150.498ZM151.931 51.122C151.931 50.3193 152.094 49.6193 152.421 49.022C152.747 48.4153 153.2 47.9487 153.779 47.622C154.357 47.286 155.02 47.118 155.767 47.118C156.728 47.118 157.521 47.3607 158.147 47.846C158.781 48.322 159.206 48.994 159.421 49.862H157.307C157.195 49.526 157.003 49.2647 156.733 49.078C156.471 48.882 156.145 48.784 155.753 48.784C155.193 48.784 154.749 48.9893 154.423 49.4C154.096 49.8013 153.933 50.3753 153.933 51.122C153.933 51.8593 154.096 52.4333 154.423 52.844C154.749 53.2453 155.193 53.446 155.753 53.446C156.546 53.446 157.064 53.0913 157.307 52.382H159.421C159.206 53.222 158.781 53.8893 158.147 54.384C157.512 54.8787 156.719 55.126 155.767 55.126C155.02 55.126 154.357 54.9627 153.779 54.636C153.2 54.3 152.747 53.8333 152.421 53.236C152.094 52.6293 151.931 51.9247 151.931 51.122ZM160.353 51.094C160.353 50.31 160.507 49.6147 160.815 49.008C161.132 48.4013 161.557 47.9347 162.089 47.608C162.63 47.2813 163.232 47.118 163.895 47.118C164.473 47.118 164.977 47.2347 165.407 47.468C165.845 47.7013 166.195 47.9953 166.457 48.35V47.244H168.431V55H166.457V53.866C166.205 54.23 165.855 54.5333 165.407 54.776C164.968 55.0093 164.459 55.126 163.881 55.126C163.227 55.126 162.63 54.958 162.089 54.622C161.557 54.286 161.132 53.8147 160.815 53.208C160.507 52.592 160.353 51.8873 160.353 51.094ZM166.457 51.122C166.457 50.646 166.363 50.24 166.177 49.904C165.99 49.5587 165.738 49.2973 165.421 49.12C165.103 48.9333 164.763 48.84 164.399 48.84C164.035 48.84 163.699 48.9287 163.391 49.106C163.083 49.2833 162.831 49.5447 162.635 49.89C162.448 50.226 162.355 50.6273 162.355 51.094C162.355 51.5607 162.448 51.9713 162.635 52.326C162.831 52.6713 163.083 52.9373 163.391 53.124C163.708 53.3107 164.044 53.404 164.399 53.404C164.763 53.404 165.103 53.3153 165.421 53.138C165.738 52.9513 165.99 52.69 166.177 52.354C166.363 52.0087 166.457 51.598 166.457 51.122ZM172.627 48.854V52.606C172.627 52.8673 172.688 53.0587 172.809 53.18C172.94 53.292 173.154 53.348 173.453 53.348H174.363V55H173.131C171.479 55 170.653 54.1973 170.653 52.592V48.854H169.729V47.244H170.653V45.326H172.627V47.244H174.363V48.854H172.627ZM176.767 46.32C176.421 46.32 176.132 46.2127 175.899 45.998C175.675 45.774 175.563 45.4987 175.563 45.172C175.563 44.8453 175.675 44.5747 175.899 44.36C176.132 44.136 176.421 44.024 176.767 44.024C177.112 44.024 177.397 44.136 177.621 44.36C177.854 44.5747 177.971 44.8453 177.971 45.172C177.971 45.4987 177.854 45.774 177.621 45.998C177.397 46.2127 177.112 46.32 176.767 46.32ZM177.733 47.244V55H175.773V47.244H177.733ZM183.113 55.126C182.366 55.126 181.694 54.9627 181.097 54.636C180.5 54.3 180.028 53.8287 179.683 53.222C179.347 52.6153 179.179 51.9153 179.179 51.122C179.179 50.3287 179.352 49.6287 179.697 49.022C180.052 48.4153 180.532 47.9487 181.139 47.622C181.746 47.286 182.422 47.118 183.169 47.118C183.916 47.118 184.592 47.286 185.199 47.622C185.806 47.9487 186.282 48.4153 186.627 49.022C186.982 49.6287 187.159 50.3287 187.159 51.122C187.159 51.9153 186.977 52.6153 186.613 53.222C186.258 53.8287 185.773 54.3 185.157 54.636C184.55 54.9627 183.869 55.126 183.113 55.126ZM183.113 53.418C183.468 53.418 183.799 53.334 184.107 53.166C184.424 52.9887 184.676 52.7273 184.863 52.382C185.05 52.0367 185.143 51.6167 185.143 51.122C185.143 50.3847 184.947 49.82 184.555 49.428C184.172 49.0267 183.701 48.826 183.141 48.826C182.581 48.826 182.11 49.0267 181.727 49.428C181.354 49.82 181.167 50.3847 181.167 51.122C181.167 51.8593 181.349 52.4287 181.713 52.83C182.086 53.222 182.553 53.418 183.113 53.418ZM192.895 47.132C193.819 47.132 194.566 47.426 195.135 48.014C195.704 48.5927 195.989 49.4047 195.989 50.45V55H194.029V50.716C194.029 50.1 193.875 49.6287 193.567 49.302C193.259 48.966 192.839 48.798 192.307 48.798C191.766 48.798 191.336 48.966 191.019 49.302C190.711 49.6287 190.557 50.1 190.557 50.716V55H188.597V47.244H190.557V48.21C190.818 47.874 191.15 47.6127 191.551 47.426C191.962 47.23 192.41 47.132 192.895 47.132Z" fill="white"/>
<rect x="1.5" y="1.5" width="247" height="77" rx="8.5" stroke="#45526C" stroke-width="3"/>
</svg>
