<svg width="250" height="80" viewBox="0 0 250 80" fill="none" xmlns="http://www.w3.org/2000/svg">
<rect x="1" y="1" width="248" height="78" rx="9" fill="#F7B888"/>
<path d="M41.9563 35.228V45H39.9963V35.228H41.9563ZM48.1908 37.132C49.1148 37.132 49.8614 37.426 50.4308 38.014C51.0001 38.5927 51.2848 39.4047 51.2848 40.45V45H49.3248V40.716C49.3248 40.1 49.1708 39.6287 48.8628 39.302C48.5548 38.966 48.1348 38.798 47.6028 38.798C47.0614 38.798 46.6321 38.966 46.3148 39.302C46.0068 39.6287 45.8528 40.1 45.8528 40.716V45H43.8928V37.244H45.8528V38.21C46.1141 37.874 46.4454 37.6127 46.8468 37.426C47.2574 37.23 47.7054 37.132 48.1908 37.132ZM56.7046 38.854H55.3466V45H53.3586V38.854H52.4766V37.244H53.3586V36.852C53.3586 35.9 53.6293 35.2 54.1706 34.752C54.712 34.304 55.5286 34.094 56.6206 34.122V35.774C56.1446 35.7647 55.8133 35.844 55.6266 36.012C55.44 36.18 55.3466 36.4833 55.3466 36.922V37.244H56.7046V38.854ZM61.4188 45.126C60.6721 45.126 60.0001 44.9627 59.4028 44.636C58.8055 44.3 58.3341 43.8287 57.9888 43.222C57.6528 42.6153 57.4848 41.9153 57.4848 41.122C57.4848 40.3287 57.6575 39.6287 58.0028 39.022C58.3575 38.4153 58.8381 37.9487 59.4448 37.622C60.0515 37.286 60.7281 37.118 61.4748 37.118C62.2215 37.118 62.8981 37.286 63.5048 37.622C64.1115 37.9487 64.5875 38.4153 64.9328 39.022C65.2875 39.6287 65.4648 40.3287 65.4648 41.122C65.4648 41.9153 65.2828 42.6153 64.9188 43.222C64.5641 43.8287 64.0788 44.3 63.4628 44.636C62.8561 44.9627 62.1748 45.126 61.4188 45.126ZM61.4188 43.418C61.7735 43.418 62.1048 43.334 62.4128 43.166C62.7301 42.9887 62.9821 42.7273 63.1688 42.382C63.3555 42.0367 63.4488 41.6167 63.4488 41.122C63.4488 40.3847 63.2528 39.82 62.8608 39.428C62.4781 39.0267 62.0068 38.826 61.4468 38.826C60.8868 38.826 60.4155 39.0267 60.0328 39.428C59.6595 39.82 59.4728 40.3847 59.4728 41.122C59.4728 41.8593 59.6548 42.4287 60.0188 42.83C60.3921 43.222 60.8588 43.418 61.4188 43.418ZM68.8625 38.448C69.1145 38.0373 69.4412 37.7153 69.8425 37.482C70.2532 37.2487 70.7199 37.132 71.2425 37.132V39.19H70.7245C70.1085 39.19 69.6419 39.3347 69.3245 39.624C69.0165 39.9133 68.8625 40.4173 68.8625 41.136V45H66.9025V37.244H68.8625V38.448ZM82.1947 37.132C83.1467 37.132 83.912 37.426 84.4907 38.014C85.0787 38.5927 85.3727 39.4047 85.3727 40.45V45H83.4127V40.716C83.4127 40.1093 83.2587 39.6473 82.9507 39.33C82.6427 39.0033 82.2227 38.84 81.6907 38.84C81.1587 38.84 80.734 39.0033 80.4167 39.33C80.1087 39.6473 79.9547 40.1093 79.9547 40.716V45H77.9947V40.716C77.9947 40.1093 77.8407 39.6473 77.5327 39.33C77.2247 39.0033 76.8047 38.84 76.2727 38.84C75.7313 38.84 75.302 39.0033 74.9847 39.33C74.6767 39.6473 74.5227 40.1093 74.5227 40.716V45H72.5627V37.244H74.5227V38.182C74.7747 37.8553 75.0967 37.5987 75.4887 37.412C75.89 37.2253 76.3287 37.132 76.8047 37.132C77.4113 37.132 77.9527 37.2627 78.4287 37.524C78.9047 37.776 79.2733 38.14 79.5347 38.616C79.7867 38.168 80.1507 37.8087 80.6267 37.538C81.112 37.2673 81.6347 37.132 82.1947 37.132ZM86.7286 41.094C86.7286 40.31 86.8826 39.6147 87.1906 39.008C87.5079 38.4013 87.9326 37.9347 88.4646 37.608C89.0059 37.2813 89.6079 37.118 90.2706 37.118C90.8493 37.118 91.3533 37.2347 91.7826 37.468C92.2213 37.7013 92.5713 37.9953 92.8326 38.35V37.244H94.8066V45H92.8326V43.866C92.5806 44.23 92.2306 44.5333 91.7826 44.776C91.3439 45.0093 90.8353 45.126 90.2566 45.126C89.6033 45.126 89.0059 44.958 88.4646 44.622C87.9326 44.286 87.5079 43.8147 87.1906 43.208C86.8826 42.592 86.7286 41.8873 86.7286 41.094ZM92.8326 41.122C92.8326 40.646 92.7393 40.24 92.5526 39.904C92.3659 39.5587 92.1139 39.2973 91.7966 39.12C91.4793 38.9333 91.1386 38.84 90.7746 38.84C90.4106 38.84 90.0746 38.9287 89.7666 39.106C89.4586 39.2833 89.2066 39.5447 89.0106 39.89C88.8239 40.226 88.7306 40.6273 88.7306 41.094C88.7306 41.5607 88.8239 41.9713 89.0106 42.326C89.2066 42.6713 89.4586 42.9373 89.7666 43.124C90.0839 43.3107 90.4199 43.404 90.7746 43.404C91.1386 43.404 91.4793 43.3153 91.7966 43.138C92.1139 42.9513 92.3659 42.69 92.5526 42.354C92.7393 42.0087 92.8326 41.598 92.8326 41.122ZM99.0029 38.854V42.606C99.0029 42.8673 99.0635 43.0587 99.1849 43.18C99.3155 43.292 99.5302 43.348 99.8289 43.348H100.739V45H99.5069C97.8549 45 97.0289 44.1973 97.0289 42.592V38.854H96.1049V37.244H97.0289V35.326H99.0029V37.244H100.739V38.854H99.0029ZM103.143 36.32C102.797 36.32 102.508 36.2127 102.275 35.998C102.051 35.774 101.939 35.4987 101.939 35.172C101.939 34.8453 102.051 34.5747 102.275 34.36C102.508 34.136 102.797 34.024 103.143 34.024C103.488 34.024 103.773 34.136 103.997 34.36C104.23 34.5747 104.347 34.8453 104.347 35.172C104.347 35.4987 104.23 35.774 103.997 35.998C103.773 36.2127 103.488 36.32 103.143 36.32ZM104.109 37.244V45H102.149V37.244H104.109ZM109.489 45.126C108.742 45.126 108.07 44.9627 107.473 44.636C106.876 44.3 106.404 43.8287 106.059 43.222C105.723 42.6153 105.555 41.9153 105.555 41.122C105.555 40.3287 105.728 39.6287 106.073 39.022C106.428 38.4153 106.908 37.9487 107.515 37.622C108.122 37.286 108.798 37.118 109.545 37.118C110.292 37.118 110.968 37.286 111.575 37.622C112.182 37.9487 112.658 38.4153 113.003 39.022C113.358 39.6287 113.535 40.3287 113.535 41.122C113.535 41.9153 113.353 42.6153 112.989 43.222C112.634 43.8287 112.149 44.3 111.533 44.636C110.926 44.9627 110.245 45.126 109.489 45.126ZM109.489 43.418C109.844 43.418 110.175 43.334 110.483 43.166C110.8 42.9887 111.052 42.7273 111.239 42.382C111.426 42.0367 111.519 41.6167 111.519 41.122C111.519 40.3847 111.323 39.82 110.931 39.428C110.548 39.0267 110.077 38.826 109.517 38.826C108.957 38.826 108.486 39.0267 108.103 39.428C107.73 39.82 107.543 40.3847 107.543 41.122C107.543 41.8593 107.725 42.4287 108.089 42.83C108.462 43.222 108.929 43.418 109.489 43.418ZM119.271 37.132C120.195 37.132 120.942 37.426 121.511 38.014C122.08 38.5927 122.365 39.4047 122.365 40.45V45H120.405V40.716C120.405 40.1 120.251 39.6287 119.943 39.302C119.635 38.966 119.215 38.798 118.683 38.798C118.142 38.798 117.712 38.966 117.395 39.302C117.087 39.6287 116.933 40.1 116.933 40.716V45H114.973V37.244H116.933V38.21C117.194 37.874 117.526 37.6127 117.927 37.426C118.338 37.23 118.786 37.132 119.271 37.132ZM134.215 35.228V36.81H131.611V45H129.651V36.81H127.047V35.228H134.215ZM142.855 40.954C142.855 41.234 142.836 41.486 142.799 41.71H137.129C137.175 42.27 137.371 42.7087 137.717 43.026C138.062 43.3433 138.487 43.502 138.991 43.502C139.719 43.502 140.237 43.1893 140.545 42.564H142.659C142.435 43.3107 142.005 43.9267 141.371 44.412C140.736 44.888 139.957 45.126 139.033 45.126C138.286 45.126 137.614 44.9627 137.017 44.636C136.429 44.3 135.967 43.8287 135.631 43.222C135.304 42.6153 135.141 41.9153 135.141 41.122C135.141 40.3193 135.304 39.6147 135.631 39.008C135.957 38.4013 136.415 37.9347 137.003 37.608C137.591 37.2813 138.267 37.118 139.033 37.118C139.77 37.118 140.428 37.2767 141.007 37.594C141.595 37.9113 142.047 38.364 142.365 38.952C142.691 39.5307 142.855 40.198 142.855 40.954ZM140.825 40.394C140.815 39.89 140.633 39.4887 140.279 39.19C139.924 38.882 139.49 38.728 138.977 38.728C138.491 38.728 138.081 38.8773 137.745 39.176C137.418 39.4653 137.217 39.8713 137.143 40.394H140.825ZM143.781 41.122C143.781 40.3193 143.945 39.6193 144.271 39.022C144.598 38.4153 145.051 37.9487 145.629 37.622C146.208 37.286 146.871 37.118 147.617 37.118C148.579 37.118 149.372 37.3607 149.997 37.846C150.632 38.322 151.057 38.994 151.271 39.862H149.157C149.045 39.526 148.854 39.2647 148.583 39.078C148.322 38.882 147.995 38.784 147.603 38.784C147.043 38.784 146.6 38.9893 146.273 39.4C145.947 39.8013 145.783 40.3753 145.783 41.122C145.783 41.8593 145.947 42.4333 146.273 42.844C146.6 43.2453 147.043 43.446 147.603 43.446C148.397 43.446 148.915 43.0913 149.157 42.382H151.271C151.057 43.222 150.632 43.8893 149.997 44.384C149.363 44.8787 148.569 45.126 147.617 45.126C146.871 45.126 146.208 44.9627 145.629 44.636C145.051 44.3 144.598 43.8333 144.271 43.236C143.945 42.6293 143.781 41.9247 143.781 41.122ZM157.075 37.132C157.663 37.132 158.186 37.2627 158.643 37.524C159.101 37.776 159.455 38.154 159.707 38.658C159.969 39.1527 160.099 39.75 160.099 40.45V45H158.139V40.716C158.139 40.1 157.985 39.6287 157.677 39.302C157.369 38.966 156.949 38.798 156.417 38.798C155.876 38.798 155.447 38.966 155.129 39.302C154.821 39.6287 154.667 40.1 154.667 40.716V45H152.707V34.64H154.667V38.21C154.919 37.874 155.255 37.6127 155.675 37.426C156.095 37.23 156.562 37.132 157.075 37.132ZM166.261 37.132C167.185 37.132 167.932 37.426 168.501 38.014C169.07 38.5927 169.355 39.4047 169.355 40.45V45H167.395V40.716C167.395 40.1 167.241 39.6287 166.933 39.302C166.625 38.966 166.205 38.798 165.673 38.798C165.132 38.798 164.702 38.966 164.385 39.302C164.077 39.6287 163.923 40.1 163.923 40.716V45H161.963V37.244H163.923V38.21C164.184 37.874 164.516 37.6127 164.917 37.426C165.328 37.23 165.776 37.132 166.261 37.132ZM174.663 45.126C173.916 45.126 173.244 44.9627 172.647 44.636C172.05 44.3 171.578 43.8287 171.233 43.222C170.897 42.6153 170.729 41.9153 170.729 41.122C170.729 40.3287 170.902 39.6287 171.247 39.022C171.602 38.4153 172.082 37.9487 172.689 37.622C173.296 37.286 173.972 37.118 174.719 37.118C175.466 37.118 176.142 37.286 176.749 37.622C177.356 37.9487 177.832 38.4153 178.177 39.022C178.532 39.6287 178.709 40.3287 178.709 41.122C178.709 41.9153 178.527 42.6153 178.163 43.222C177.808 43.8287 177.323 44.3 176.707 44.636C176.1 44.9627 175.419 45.126 174.663 45.126ZM174.663 43.418C175.018 43.418 175.349 43.334 175.657 43.166C175.974 42.9887 176.226 42.7273 176.413 42.382C176.6 42.0367 176.693 41.6167 176.693 41.122C176.693 40.3847 176.497 39.82 176.105 39.428C175.722 39.0267 175.251 38.826 174.691 38.826C174.131 38.826 173.66 39.0267 173.277 39.428C172.904 39.82 172.717 40.3847 172.717 41.122C172.717 41.8593 172.899 42.4287 173.263 42.83C173.636 43.222 174.103 43.418 174.663 43.418ZM182.107 34.64V45H180.147V34.64H182.107ZM187.487 45.126C186.74 45.126 186.068 44.9627 185.471 44.636C184.874 44.3 184.402 43.8287 184.057 43.222C183.721 42.6153 183.553 41.9153 183.553 41.122C183.553 40.3287 183.726 39.6287 184.071 39.022C184.426 38.4153 184.906 37.9487 185.513 37.622C186.12 37.286 186.796 37.118 187.543 37.118C188.29 37.118 188.966 37.286 189.573 37.622C190.18 37.9487 190.656 38.4153 191.001 39.022C191.356 39.6287 191.533 40.3287 191.533 41.122C191.533 41.9153 191.351 42.6153 190.987 43.222C190.632 43.8287 190.147 44.3 189.531 44.636C188.924 44.9627 188.243 45.126 187.487 45.126ZM187.487 43.418C187.842 43.418 188.173 43.334 188.481 43.166C188.798 42.9887 189.05 42.7273 189.237 42.382C189.424 42.0367 189.517 41.6167 189.517 41.122C189.517 40.3847 189.321 39.82 188.929 39.428C188.546 39.0267 188.075 38.826 187.515 38.826C186.955 38.826 186.484 39.0267 186.101 39.428C185.728 39.82 185.541 40.3847 185.541 41.122C185.541 41.8593 185.723 42.4287 186.087 42.83C186.46 43.222 186.927 43.418 187.487 43.418ZM196.009 37.118C196.588 37.118 197.096 37.2347 197.535 37.468C197.974 37.692 198.319 37.986 198.571 38.35V37.244H200.545V45.056C200.545 45.7747 200.4 46.414 200.111 46.974C199.822 47.5433 199.388 47.9913 198.809 48.318C198.23 48.654 197.53 48.822 196.709 48.822C195.608 48.822 194.702 48.5653 193.993 48.052C193.293 47.5387 192.896 46.8387 192.803 45.952H194.749C194.852 46.3067 195.071 46.5867 195.407 46.792C195.752 47.0067 196.168 47.114 196.653 47.114C197.222 47.114 197.684 46.9413 198.039 46.596C198.394 46.26 198.571 45.7467 198.571 45.056V43.852C198.319 44.216 197.969 44.5193 197.521 44.762C197.082 45.0047 196.578 45.126 196.009 45.126C195.356 45.126 194.758 44.958 194.217 44.622C193.676 44.286 193.246 43.8147 192.929 43.208C192.621 42.592 192.467 41.8873 192.467 41.094C192.467 40.31 192.621 39.6147 192.929 39.008C193.246 38.4013 193.671 37.9347 194.203 37.608C194.744 37.2813 195.346 37.118 196.009 37.118ZM198.571 41.122C198.571 40.646 198.478 40.24 198.291 39.904C198.104 39.5587 197.852 39.2973 197.535 39.12C197.218 38.9333 196.877 38.84 196.513 38.84C196.149 38.84 195.813 38.9287 195.505 39.106C195.197 39.2833 194.945 39.5447 194.749 39.89C194.562 40.226 194.469 40.6273 194.469 41.094C194.469 41.5607 194.562 41.9713 194.749 42.326C194.945 42.6713 195.197 42.9373 195.505 43.124C195.822 43.3107 196.158 43.404 196.513 43.404C196.877 43.404 197.218 43.3153 197.535 43.138C197.852 42.9513 198.104 42.69 198.291 42.354C198.478 42.0087 198.571 41.598 198.571 41.122ZM209.879 37.244L205.077 48.668H202.991L204.671 44.804L201.563 37.244H203.761L205.763 42.662L207.793 37.244H209.879Z" fill="white"/>
<rect x="1" y="1" width="248" height="78" rx="9" stroke="#45526C" stroke-width="2"/>
</svg>
